<svg width="512" height="512" xmlns="http://www.w3.org/2000/svg" clip-rule="evenodd" fill-rule="evenodd" image-rendering="optimizeQuality" text-rendering="geometricPrecision" shape-rendering="geometricPrecision">

 <g>
  <title>Layer 1</title>
  <path id="svg_1" d="m256,0c70.69,0 134.69,28.66 181.02,74.98c46.32,46.32 74.98,110.33 74.98,181.02c0,70.69 -28.66,134.69 -74.98,181.02c-46.33,46.32 -110.33,74.98 -181.02,74.98c-70.69,0 -134.7,-28.66 -181.02,-74.98c-46.32,-46.33 -74.98,-110.33 -74.98,-181.02c0,-70.69 28.66,-134.7 74.98,-181.02c46.32,-46.32 110.33,-74.98 181.02,-74.98zm149.93,106.07c-38.36,-38.37 -91.38,-62.11 -149.93,-62.11c-58.55,0 -111.57,23.74 -149.93,62.11c-38.37,38.36 -62.11,91.38 -62.11,149.93c0,58.55 23.74,111.57 62.11,149.93c38.36,38.37 91.38,62.11 149.93,62.11c58.55,0 111.57,-23.74 149.93,-62.11c38.37,-38.36 62.11,-91.38 62.11,-149.93c0,-58.55 -23.74,-111.57 -62.11,-149.93z" fill-rule="nonzero" fill="#EF4136"/>
 </g>
</svg>